
<svg width="40" height="40" viewBox="0 0 40 40" fill="none" xmlns="http://www.w3.org/2000/svg">
  <path d="M11.2221 16.6489C11.2221 17.1391 11.2752 17.5364 11.3679 17.8278C11.4855 18.1557 11.6271 18.4744 11.7916 18.7814C11.8579 18.8873 11.8843 18.9933 11.8843 19.0861C11.8843 19.2184 11.8049 19.3509 11.6327 19.4834L10.7983 20.0397C10.6791 20.1192 10.5599 20.1589 10.4538 20.1589C10.3215 20.1589 10.189 20.0927 10.0565 19.9734C9.87803 19.7816 9.71839 19.5732 9.57975 19.3509C9.44725 19.1259 9.31475 18.8741 9.16912 18.5695C8.136 19.788 6.83787 20.3973 5.27506 20.3973C4.16256 20.3973 3.27506 20.0794 2.626 19.4437C1.97709 18.8078 1.646 17.9602 1.646 16.9006C1.646 15.7748 2.04334 14.8609 2.85131 14.1722C3.65912 13.4834 4.73209 13.1391 6.09631 13.1391C6.54662 13.1391 7.01021 13.1787 7.50021 13.245C7.99037 13.3112 8.49365 13.4172 9.0235 13.5364V12.5695C9.0235 11.5628 8.81146 10.8609 8.40084 10.4503C7.97709 10.0397 7.26178 9.84094 6.24193 9.84094C5.77834 9.84094 5.30162 9.89406 4.81147 10.0133C4.32147 10.1323 3.84459 10.2781 3.381 10.4636C3.16912 10.5562 3.01022 10.6092 2.9174 10.6358C2.82475 10.6623 2.7585 10.6755 2.70553 10.6755C2.52006 10.6755 2.4274 10.543 2.4274 10.2648V9.61578C2.4274 9.40391 2.45396 9.245 2.52006 9.15234C2.58631 9.05953 2.70553 8.96687 2.891 8.87422C3.35459 8.63578 3.91084 8.43703 4.55975 8.27812C5.20897 8.10594 5.89772 8.02656 6.62615 8.02656C8.2024 8.02656 9.35475 8.38406 10.0965 9.09937C10.8249 9.81453 11.1958 10.9006 11.1958 12.3577V16.6489H11.2224H11.2221ZM5.84459 18.6622C6.28178 18.6622 6.73209 18.5828 7.20881 18.4237C7.68568 18.2648 8.10959 17.9734 8.46709 17.5761C8.67912 17.3245 8.83803 17.0464 8.9174 16.7284C8.99693 16.4106 9.0499 16.0264 9.0499 15.5761V15.0198C8.64823 14.9221 8.24139 14.8469 7.83131 14.7947C7.41837 14.7422 7.00256 14.7157 6.58631 14.7152C5.69881 14.7152 5.0499 14.8873 4.61287 15.245C4.17568 15.6027 3.96381 16.1059 3.96381 16.7681C3.96381 17.3906 4.12271 17.8542 4.45381 18.1722C4.77178 18.5033 5.23537 18.6622 5.84459 18.6622ZM16.4804 20.0927C16.2419 20.0927 16.083 20.053 15.9771 19.9602C15.8712 19.8808 15.7783 19.6953 15.699 19.4437L12.5865 9.20531C12.5068 8.94031 12.4671 8.76812 12.4671 8.67547C12.4671 8.46359 12.573 8.34422 12.7851 8.34422H14.083C14.3346 8.34422 14.5069 8.38406 14.5996 8.47672C14.7055 8.55625 14.7851 8.74172 14.8644 8.99328L17.0896 17.7616L19.1558 8.99328C19.2221 8.72844 19.3016 8.55625 19.4074 8.47672C19.5135 8.39734 19.699 8.34437 19.9374 8.34437H20.9969C21.2485 8.34437 21.4208 8.38406 21.5266 8.47672C21.6327 8.55625 21.7254 8.74172 21.7783 8.99328L23.8712 17.8675L26.1624 8.99328C26.2418 8.72844 26.3346 8.55625 26.4272 8.47672C26.5332 8.39734 26.7054 8.34437 26.9438 8.34437H28.1755C28.3876 8.34437 28.5068 8.45031 28.5068 8.67547C28.5068 8.74172 28.4935 8.80797 28.4802 8.88734C28.4669 8.96687 28.4405 9.07281 28.3876 9.21859L25.1954 19.4569C25.116 19.7219 25.0233 19.8941 24.9172 19.9734C24.8113 20.053 24.6391 20.1059 24.4141 20.1059H23.2751C23.0233 20.1059 22.8512 20.0662 22.7451 19.9734C22.6391 19.8808 22.5465 19.7086 22.4935 19.4437L20.4404 10.9006L18.4007 19.4303C18.3346 19.6953 18.2551 19.8675 18.1491 19.9602C18.0432 20.053 17.8577 20.0927 17.6194 20.0927H16.4802H16.4804ZM33.5002 20.4503C32.8115 20.4503 32.1227 20.3708 31.4605 20.2119C30.7982 20.053 30.2818 19.8806 29.9374 19.6822C29.7254 19.5628 29.5796 19.4305 29.5268 19.3112C29.4752 19.1943 29.4481 19.0681 29.4472 18.9403V18.2648C29.4472 17.9867 29.5532 17.8542 29.7519 17.8542C29.833 17.8545 29.9136 17.868 29.9904 17.8941C30.0697 17.9206 30.189 17.9734 30.3215 18.0264C30.7893 18.2322 31.2776 18.3876 31.7783 18.49C32.2972 18.5953 32.8252 18.6485 33.3546 18.6489C34.189 18.6489 34.838 18.5033 35.2883 18.2119C35.7387 17.9205 35.9771 17.4967 35.9771 16.9536C35.9771 16.5828 35.8579 16.2781 35.6194 16.0264C35.381 15.7748 34.9307 15.5497 34.2818 15.3377L32.3612 14.7417C31.3943 14.437 30.6791 13.9867 30.2419 13.3906C29.8049 12.8078 29.5797 12.1589 29.5797 11.4702C29.5797 10.9139 29.699 10.4237 29.9374 9.99984C30.1757 9.57609 30.4937 9.20531 30.891 8.91391C31.2883 8.60922 31.7387 8.38406 32.2685 8.22516C32.7982 8.06625 33.3544 8 33.9372 8C34.2287 8 34.5333 8.01328 34.8247 8.05297C35.1294 8.09266 35.4076 8.14562 35.6857 8.19859C35.9505 8.26484 36.2022 8.33109 36.4407 8.41062C36.6791 8.49 36.8644 8.56953 36.9969 8.64891C37.1824 8.755 37.3147 8.86094 37.3943 8.98016C37.4738 9.08609 37.5135 9.23172 37.5135 9.41719V10.0397C37.5135 10.3178 37.4076 10.4636 37.2088 10.4636C37.1029 10.4636 36.9307 10.4105 36.7057 10.3045C35.9505 9.96016 35.1029 9.78797 34.1626 9.78797C33.4076 9.78797 32.8115 9.90719 32.4008 10.1589C31.9904 10.4105 31.7783 10.7947 31.7783 11.3377C31.7783 11.7086 31.9108 12.0264 32.1757 12.2781C32.4407 12.5297 32.9307 12.7814 33.6327 13.0066L35.5135 13.6027C36.4671 13.9073 37.1558 14.3311 37.5665 14.8741C37.9771 15.4172 38.1758 16.0397 38.1758 16.7284C38.1758 17.298 38.0565 17.8145 37.8313 18.2648C37.593 18.7152 37.2751 19.1125 36.8644 19.4305C36.4538 19.7616 35.9638 20 35.3943 20.1722C34.7982 20.3577 34.1757 20.4503 33.5002 20.4503Z" fill="#252F3E"/>
  <path d="M36.0041 26.8872C31.6466 30.1058 25.3154 31.8144 19.8718 31.8144C12.2426 31.8144 5.3685 28.9931 0.176464 24.3044C-0.234161 23.9336 0.136621 23.4303 0.626621 23.7215C6.24256 26.98 13.1697 28.9534 20.3354 28.9534C25.1697 28.9534 30.481 27.9469 35.3685 25.8806C36.0969 25.5494 36.7194 26.3575 36.0041 26.8872ZM37.8188 24.8209C37.2626 24.1058 34.1366 24.4765 32.7194 24.6487C32.2955 24.7019 32.2293 24.3309 32.6135 24.0528C35.1035 22.3044 39.1963 22.8078 39.673 23.3905C40.1499 23.9865 39.5405 28.0792 37.2094 30.0395C36.8519 30.3442 36.5076 30.1853 36.6665 29.788C37.1962 28.4765 38.3751 25.523 37.8188 24.8209Z" fill="#FF9900"/>
</svg>
