<svg xmlns="http://www.w3.org/2000/svg" width="32" height="32" viewBox="0 0 380 380" fill="none">
  <path fill="#E24329" d="M190 380l68.4-210.5H121.6L190 380z"/>
  <path fill="#FC6D26" d="M190 380l-68.4-210.5H30.7L190 380z"/>
  <path fill="#FC6D26" d="M30.7 169.5l-18.5 56.8c-1.7 5.1.2 10.7 4.5 13.9L190 380 30.7 169.5z"/>
  <path fill="#FCA326" d="M30.7 169.5h90.9L76.3 41.2c-2.3-7.1-12.4-7.1-14.7 0L30.7 169.5z"/>
  <path fill="#E24329" d="M190 380l68.4-210.5h90.9L190 380z"/>
  <path fill="#FC6D26" d="M349.3 169.5l18.5 56.8c1.7 5.1-.2 10.7-4.5 13.9L190 380l159.3-210.5z"/>
  <path fill="#FCA326" d="M349.3 169.5h-90.9l30.9-128.3c2.3-7.1 12.4-7.1 14.7 0l45.3 128.3z"/>
</svg>